# xmcd
#
# Track frame offsets:
#	150
#	13105
#	29615
#	45832
#	62937
#	81265
#	96164
#	111707
#	125435
#	144762
#	160286
#	178123
#	195538
#	212730
#	227909
#
# Disc length: 3354 seconds
#
# Revision: 0
# Processed by: cddbd v1.5.2PL0 Copyright (c) Steve Scherf et al.
# Submitted via: EasyCDDAExtractor 11.0.2.1
#
DISCID=d30d180f
DTITLE=Rocio Jurado - Coleccion Original
DYEAR=1999
DGENRE=Latin
TTITLE0=Si Te Habla De Mi
TTITLE1=Ese Hombre
TTITLE2=Señora
TTITLE3=Lo Siento Mi Amor
TTITLE4=Paloma Negra
TTITLE5=Ya No Te Sientas Solo Y Triste
TTITLE6=Lo Vas A Conseguir
TTITLE7=Rocio
TTITLE8=Como Una Ola
TTITLE9=Por Un Amor
TTITLE10=Mi Amante Amigo
TTITLE11=Porque Me Habras Besado
TTITLE12=Cuentale
TTITLE13=A Pesar De Todo
TTITLE14=Si Amanece
EXTD=
EXTT0=
EXTT1=
EXTT2=
EXTT3=
EXTT4=
EXTT5=
EXTT6=
EXTT7=
EXTT8=
EXTT9=
EXTT10=
EXTT11=
EXTT12=
EXTT13=
EXTT14=
PLAYORDER=
